HIERARCHY
ROOT hip
{
	OFFSET 0.000000 0.000000 0.000000
	CHANNELS 6 Xposition Yposition Zposition Xrotation Zrotation Yrotation 
	JOINT abdomen
	{
		OFFSET 0.000000 3.422050 0.000000
		CHANNELS 3 Xrotation Zrotation Yrotation 
		JOINT chest
		{
			OFFSET 0.000000 8.486693 -0.684411
			CHANNELS 3 Xrotation Zrotation Yrotation 
			JOINT neck
			{
				OFFSET 0.000000 10.266162 -0.273764
				CHANNELS 3 Xrotation Zrotation Yrotation 
				JOINT head
				{
					OFFSET 0.000000 3.148285 0.000000
					CHANNELS 3 Xrotation Zrotation Yrotation 
					End Site
					{
						OFFSET 0.000000 3.148289 0.000000
					}
				}
			}
			JOINT lCollar
			{
				OFFSET 3.422053 6.707223 -0.821293
				CHANNELS 3 Yrotation Zrotation Xrotation 
				JOINT lShldr
				{
					OFFSET 3.285171 0.000000 0.000000
					CHANNELS 3 Zrotation Yrotation Xrotation 
					JOINT lForeArm
					{
						OFFSET 10.129278 0.000000 0.000000
						CHANNELS 3 Yrotation Zrotation Xrotation 
						JOINT lHand
						{
							OFFSET 8.486692 0.000000 0.000000
							CHANNELS 3 Zrotation Yrotation Xrotation 
							End Site
							{
								OFFSET 4.106464 0.000000 0.000000
							}
						}
					}
				}
			}
			JOINT rCollar
			{
				OFFSET -3.558935 6.707223 -0.821293
				CHANNELS 3 Yrotation Zrotation Xrotation 
				JOINT rShldr
				{
					OFFSET -3.148289 0.000000 0.000000
					CHANNELS 3 Zrotation Yrotation Xrotation 
					JOINT rForeArm
					{
						OFFSET -10.266159 0.000000 0.000000
						CHANNELS 3 Yrotation Zrotation Xrotation 
						JOINT rHand
						{
							OFFSET -8.349810 0.000000 0.000000
							CHANNELS 3 Zrotation Yrotation Xrotation 
							End Site
							{
								OFFSET -4.106464 0.000000 0.000000
							}
						}
					}
				}
			}
		}
	}
	JOINT lThigh
	{
		OFFSET 5.338403 -1.642589 1.368821
		CHANNELS 3 Xrotation Zrotation Yrotation 
		JOINT lShin
		{
			OFFSET -2.053232 -20.121670 0.000000
			CHANNELS 3 Xrotation Zrotation Yrotation 
			JOINT lFoot
			{
				OFFSET 0.000000 -19.300380 -1.231939
				CHANNELS 3 Xrotation Yrotation Zrotation 
				End Site
				{
					OFFSET 0.000000 -2.463878 4.653993
				}
			}
		}
	}
	JOINT rThigh
	{
		OFFSET -5.338403 -1.642589 1.368821
		CHANNELS 3 Xrotation Zrotation Yrotation 
		JOINT rShin
		{
			OFFSET 2.053232 -20.121670 0.000000
			CHANNELS 3 Xrotation Zrotation Yrotation 
			JOINT rFoot
			{
				OFFSET 0.000000 -19.300380 -1.231939
				CHANNELS 3 Xrotation Yrotation Zrotation 
				End Site
				{
					OFFSET 0.000000 -2.463878 4.653993
				}
			}
		}
	}
}
MOTION
Frames: 18
Frame Time: 0.049897
0.000000 43.528500 0.000000 0.000000 0.000000 0.000000 0.000000 0.000000 0.000000 0.000000 0.000000 0.000000 0.000000 0.000000 0.000000 0.000000 0.000000 0.000000 0.000000 0.000000 0.000000 0.000000 0.000000 0.000000 0.000000 0.000000 0.000000 0.000000 0.000000 0.000000 0.000000 0.000000 0.000000 0.000000 0.000000 0.000000 0.000000 0.000000 0.000000 0.000000 0.000000 0.000000 0.000000 0.000000 0.000000 0.000000 0.000000 0.000000 0.000000 0.000000 0.000000 0.000000 0.000000 0.000000 0.000000 0.000000 0.000000 0.000000 0.000000 0.000000 
0.501617 19.807980 -1.144426 -15.001697 0.000000 0.000000 59.185749 -1.778827 -1.149035 31.976887 -2.177796 -0.811440 -0.347970 0.000000 0.000000 -0.365455 0.000000 0.000000 -14.229671 -7.079067 -20.984749 -10.000496 -48.955326 34.877922 -43.352463 40.316166 8.259301 38.199192 -11.451300 6.275642 14.214322 7.057117 -20.980463 9.994498 48.933567 34.898060 43.341488 -40.360035 8.237610 -38.200554 11.428920 6.264510 -79.728340 45.183144 11.495396 104.693291 4.607168 -1.609145 -16.184887 -1.239301 -3.972567 -79.677269 -45.288002 -11.617058 104.694733 -4.647730 1.613872 -16.200333 1.304525 3.907895 
0.501617 19.619078 -1.144426 -15.833069 0.000000 0.000000 59.185749 -1.778827 -1.149035 31.976887 -2.177796 -0.811440 -0.455260 -0.079251 -0.094947 -0.585357 0.000000 0.000000 -14.884239 -7.033022 -20.728586 -9.754515 -48.680866 34.661945 -42.128502 39.777428 7.478177 38.030174 -11.814441 5.891297 15.042527 6.931524 -20.760252 9.718436 48.611622 34.654484 41.912830 -39.714684 7.325793 -38.112759 11.933812 5.795036 -79.513611 45.507877 11.375490 105.119102 4.648493 -1.576770 -16.142307 -1.495136 -3.664846 -79.462456 -45.612896 -11.497527 105.120598 -4.688852 1.580680 -16.158438 1.560219 3.598409 
0.501617 19.430176 -1.144426 -16.665142 0.000000 0.000000 59.185749 -1.778827 -1.149035 31.976891 -2.177796 -0.811440 -0.562460 -0.158710 -0.189781 -0.805408 0.000000 0.000000 -15.539373 -6.989857 -20.471764 -9.511391 -48.405754 34.448875 -40.921978 39.225342 6.717110 37.863358 -12.178831 5.507374 15.871802 6.808990 -20.538076 9.446132 48.288834 34.414726 40.508160 -39.050964 6.441758 -38.028999 12.439708 5.325179 -79.298538 45.833000 11.256608 105.545029 4.689585 -1.544080 -16.098339 -1.750789 -3.356835 -79.247322 -45.938183 -11.379019 105.546585 -4.729734 1.547173 -16.115143 1.815731 3.288633 
0.501617 19.241274 -1.144426 -17.497833 0.000000 0.000000 59.185749 -1.778827 -1.149035 31.976891 -2.177796 -0.811440 -0.669568 -0.238375 -0.284501 -1.025608 0.000000 0.000000 -16.195015 -6.949585 -20.214334 -9.271084 -48.130024 34.238686 -39.732933 38.660385 5.976147 37.698753 -12.544438 5.123866 16.702053 6.689560 -20.314005 9.177517 47.965267 34.178745 39.127460 -38.369648 5.585538 -37.949284 12.946523 4.854889 -79.083138 46.158508 11.138749 105.971107 4.730443 -1.511075 -16.052986 -2.006246 -3.048530 -79.031792 -46.263832 -11.261552 105.972725 -4.770376 1.513354 -16.070459 2.071052 2.978564 
0.501617 19.052372 -1.144426 -18.331053 0.000000 0.000000 59.185749 -1.778827 -1.149035 31.976887 -2.177796 -0.811440 -0.776583 -0.318246 -0.379107 -1.245954 0.000000 0.000000 -16.851103 -6.912224 -19.956352 -9.033546 -47.853680 34.031315 -38.561356 38.083069 5.255292 37.536373 -12.911222 4.740767 17.533171 6.573282 -20.088095 8.912523 47.640930 33.946461 37.770714 -37.671532 4.757109 -37.873642 13.454195 4.384134 -78.867386 46.484371 11.021948 106.397308 4.771063 -1.477759 -16.006237 -2.261492 -2.739925 -78.815964 -46.589870 -11.145146 106.398987 -4.810773 1.479225 -16.024376 2.326163 2.668197 
0.501617 18.863468 -1.144426 -19.164713 0.000000 0.000000 59.185749 -1.778827 -1.149035 31.976887 -2.177796 -0.811440 -0.883506 -0.398323 -0.473599 -1.466446 0.000000 0.000000 -17.507574 -6.877785 -19.697872 -8.798732 -47.576767 33.826744 -37.407200 37.493862 4.554508 37.376247 -13.279156 4.358067 18.365061 6.460204 -19.860424 8.651069 47.315834 33.717781 36.437737 -36.957382 3.956347 -37.802109 13.962646 3.912867 -78.651245 46.810585 10.906216 106.823608 4.811439 -1.444134 -15.958109 -2.516516 -2.431018 -78.599716 -46.916237 -11.029811 106.825348 -4.850921 1.444788 -15.976891 2.581053 2.357526 
0.501617 18.674566 -1.144426 -19.998732 0.000000 0.000000 59.185749 -1.778827 -1.149035 31.976887 -2.177796 -0.811440 -0.990336 -0.478604 -0.567975 -1.687081 0.000000 0.000000 -18.164364 -6.846280 -19.438940 -8.566595 -47.299248 33.624897 -36.270393 36.893280 3.873722 37.218369 -13.648196 3.975760 19.197628 6.350372 -19.631075 8.393101 46.990028 33.492676 35.128399 -36.228035 3.183089 -37.734726 14.471810 3.441053 -78.434746 47.137150 10.791577 107.250008 4.851569 -1.410202 -15.908580 -2.771301 -2.121801 -78.383095 -47.242943 -10.915566 107.251808 -4.890817 1.410046 -15.928012 2.835708 2.046548 
0.501617 18.485664 -1.144426 -20.833014 0.000000 0.000000 59.185749 -1.778827 -1.149035 31.976887 -2.177796 -0.811440 -1.097072 -0.559089 -0.662236 -1.907858 0.000000 0.000000 -18.821413 -6.817715 -19.179619 -8.337094 -47.021179 33.425739 -35.150803 36.281803 3.212816 37.062759 -14.018307 3.593836 20.030758 6.243825 -19.400103 8.138539 46.663521 33.271049 33.842392 -35.484245 2.437096 -37.671520 14.981614 2.968647 -78.217842 47.464035 10.678037 107.676483 4.891450 -1.375967 -15.857664 -3.025833 -1.812273 -78.166069 -47.569973 -10.802432 107.678352 -4.930456 1.375002 -15.877731 3.090112 1.735258 
0.501617 18.296762 -1.144426 -21.667475 0.000000 0.000000 59.185749 -1.778827 -1.149035 31.976887 -2.177796 -0.811440 -1.203715 -0.639777 -0.756382 -2.128776 0.000000 0.000000 -19.478659 -6.792101 -18.919954 -8.110187 -46.742573 33.229248 -34.048275 35.659916 2.571652 36.909420 -14.389455 3.212287 20.864349 6.140604 -19.167580 7.887328 46.336327 33.052841 32.579449 -34.726822 1.718079 -37.612503 15.491982 2.495607 -78.000534 47.791225 10.565624 108.103043 4.931078 -1.341431 -15.805360 -3.280101 -1.502427 -77.948624 -47.897320 -10.690429 108.104965 -4.969838 1.339659 -15.826054 3.344253 1.423651 
0.501617 18.107861 -1.144426 -22.502020 0.000000 0.000000 59.185749 -1.778827 -1.149035 31.976891 -2.177796 -0.811440 -1.310262 -0.720669 -0.850410 -2.349833 0.000000 0.000000 -20.136030 -6.769446 -18.660000 -7.885828 -46.463425 33.035355 -32.962635 35.028122 1.950064 36.758377 -14.761601 2.831101 21.698301 6.040744 -18.933590 7.639398 46.008484 32.838001 31.339203 -33.956524 1.025714 -37.557724 16.002842 2.021884 -77.782784 48.118710 10.454350 108.529671 4.970451 -1.306597 -15.751657 -3.534087 -1.192258 -77.730759 -48.224949 -10.579570 108.531631 -5.008956 1.304019 -15.772977 3.598114 1.111723 
0.501617 17.918959 -1.144426 -23.336567 0.000000 0.000000 59.185741 -1.778827 -1.149035 31.976883 -2.177796 -0.811440 -1.416716 -0.801762 -0.944322 -2.571029 0.000000 0.000000 -20.793476 -6.749753 -18.399817 -7.663979 -46.183769 32.844032 -31.893696 34.386921 1.347856 36.609650 -15.134716 2.450271 22.532505 5.944281 -18.698204 7.394687 45.679993 32.626450 30.121264 -33.174152 0.359618 -37.507210 16.514120 1.547438 -77.564621 48.446484 10.344239 108.956337 5.009563 -1.271467 -15.696566 -3.787781 -0.881764 -77.512436 -48.552868 -10.469876 108.958366 -5.047811 1.268086 -15.718499 3.851684 0.799470 
0.501617 17.730057 -1.144426 -24.171022 0.000000 0.000000 59.185749 -1.778827 -1.149035 31.976887 -2.177796 -0.811440 -1.523073 -0.883057 -1.038116 -2.792361 0.000000 0.000000 -21.450920 -6.733028 -18.139450 -7.444599 -45.903610 32.655243 -30.841228 33.736782 0.764812 36.463226 -15.508754 2.069788 23.366856 5.851249 -18.461502 7.153133 45.350887 32.418137 28.925217 -32.380463 -0.280605 -37.460983 17.025742 1.072223 -77.345970 48.774513 10.235305 109.383034 5.048411 -1.236044 -15.640079 -4.041164 -0.570938 -77.293640 -48.881042 -10.361377 109.385139 -5.086395 1.231861 -15.662622 4.104947 0.486887 
0.501617 17.541155 -1.144426 -25.005299 0.000000 0.000000 59.185749 -1.778827 -1.149035 31.976887 -2.177796 -0.811440 -1.629336 -0.964553 -1.131792 -3.013826 0.000000 0.000000 -22.108313 -6.719273 -17.878962 -7.227643 -45.622959 32.468937 -29.804962 33.078175 0.200691 36.319145 -15.883685 1.689636 24.201250 5.761678 -18.223562 6.914678 45.021191 32.213001 27.750589 -31.576200 -0.895392 -37.419094 17.537632 0.596191 -77.126854 49.102798 10.127578 109.809784 5.086997 -1.200333 -15.582206 -4.294229 -0.259778 -77.074379 -49.209476 -10.254075 109.811928 -5.124709 1.195350 -15.605349 4.357890 0.173969 
0.501617 17.352253 -1.144426 -25.839319 0.000000 0.000000 59.185749 -1.778827 -1.149035 31.976887 -2.177796 -0.811440 -1.735502 -1.046249 -1.225350 -3.235425 0.000000 0.000000 -22.765575 -6.708489 -17.618401 -7.013075 -45.341827 32.285072 -28.784660 32.411587 -0.344760 36.177399 -16.259468 1.309809 25.035568 5.675593 -17.984453 6.679263 44.690922 32.010979 26.596937 -30.762138 -1.485203 -37.381561 18.049725 0.119295 -76.907249 49.431328 10.021067 110.236519 5.125310 -1.164334 -15.522934 -4.546954 0.051722 -76.854599 -49.538151 -10.148014 110.238739 -5.162746 1.158554 -15.546667 4.610497 -0.139286 
0.501617 17.163349 -1.144426 -26.672979 0.000000 0.000000 59.185749 -1.778827 -1.149035 31.976887 -2.177796 -0.811440 -1.841573 -1.128145 -1.318789 -3.457157 0.000000 0.000000 -23.422655 -6.700678 -17.357824 -6.800862 -45.060249 32.103626 -27.780039 31.737478 -0.871811 36.038013 -16.636070 0.930294 25.869717 5.593022 -17.744270 6.446827 44.360100 31.812016 25.463751 -29.938976 -2.050516 -37.348438 18.561945 -0.358515 -76.687126 49.760078 9.915808 110.663261 5.163352 -1.128052 -15.462266 -4.799330 0.363566 -76.634315 -49.867050 -10.043197 110.665535 -5.200504 1.121476 -15.486593 4.862758 -0.452885 
0.501617 16.974447 -1.144426 -27.506203 0.000000 0.000000 59.185749 -1.778827 -1.149035 31.976887 -2.177796 -0.811440 -1.947546 -1.210240 -1.412109 -3.679017 0.000000 0.000000 -24.079489 -6.695836 -17.097286 -6.590956 -44.778210 31.924547 -26.790815 31.056328 -1.380745 35.900993 -17.013451 0.551081 26.703590 5.513990 -17.503084 6.217319 44.028736 31.616058 24.350523 -29.107452 -2.591818 -37.319729 19.074203 -0.837283 -76.466484 50.089035 9.811804 111.090012 5.201119 -1.091489 -15.400210 -5.051342 0.675758 -76.413467 -50.196140 -9.939647 111.092346 -5.237983 1.084120 -15.425115 5.114654 -0.766831 
0.501617 16.785545 -1.144426 -28.338890 0.000000 0.000000 59.185749 -1.778827 -1.149035 31.976887 -2.177796 -0.811440 -2.053422 -1.292533 -1.505309 -3.901005 0.000000 0.000000 -24.736006 -6.693960 -16.836836 -6.383328 -44.495747 31.747808 -25.816679 30.368565 -1.871849 35.766361 -17.391577 0.172152 27.537067 5.438511 -17.260975 5.990680 43.696861 31.423044 23.256741 -28.268269 -3.109617 -37.295498 19.586447 -1.317067 -76.245308 50.418201 9.709090 111.516731 5.238607 -1.054648 -15.336761 -5.302978 0.988302 -76.192070 -50.525429 -9.837387 111.519127 -5.275177 1.046488 -15.362234 5.366173 -1.081128 
